<svg height="293" preserveAspectRatio="xMidYMid" viewBox="0 0 256 293" width="256" xmlns="http://www.w3.org/2000/svg"><path d="m255.947266 209.281745c-.073002 12.126032-6.371757 14.83094-6.371757 14.83094s-108.693227 62.806791-115.760022 66.741875c-7.002262 3.00557-11.682427 0-11.682427 0s-113.73202325-65.960575-117.88323642-68.860279c-4.15227043-2.899703-4.24853947-7.415999-4.24853947-7.415999s.11425335-130.612632 0-136.6608265c-.11425413-6.0492534 7.43388661-10.5941331 7.43388661-10.5941331l113.63575428-65.68214514c6.995915-3.69264883 13.806697 0 13.806697 0s100.386572 58.35083964 111.511482 64.62241374c10.903814 5.1843183 9.558162 15.890671 9.558162 15.890671s.067703 115.857917 0 127.127483zm-45.370179-131.0890347c-23.267528-13.3922041-78.07962-45.1513135-78.07962-45.1513135s-5.347701-2.8901756-10.840336 0l-89.2182846 51.4027734s-5.926375 3.5581974-5.8364534 8.2915207c.0899216 4.733324 0 106.9523651 0 106.9523651s.0751114 3.534907 3.3355691 5.803642c3.2594005 2.268735 92.5527969 53.890653 92.5527969 53.890653s3.675156 2.35237 9.172022 0c5.548704-3.079678 90.886599-52.232772 90.886599-52.232772s4.945699-2.117345 5.002825-11.607283c.015869-2.736668.022216-13.359385.023274-26.706066l-100.472262 60.881066v-23.29079c0-9.566163 7.405325-15.880084 7.405325-15.880084l88.869176-53.55082c3.353554-3.502087 4.045423-9.111992 4.18824-11.233571-.003173-9.72814-.007406-18.226101-.010579-23.60945l-100.452162 60.868362v-24.349462c0-9.566163 6.347421-13.76274 6.347421-13.76274z" fill="#409eff"/></svg>